<?xml version="1.0" encoding="utf-8"?>
<!-- Generator: Adobe Illustrator 16.0.0, SVG Export Plug-In . SVG Version: 6.00 Build 0)  -->
<!DOCTYPE svg PUBLIC "-//W3C//DTD SVG 1.1//EN" "http://www.w3.org/Graphics/SVG/1.1/DTD/svg11.dtd">
<svg version="1.1" id="Layer_1" xmlns="http://www.w3.org/2000/svg" xmlns:xlink="http://www.w3.org/1999/xlink" x="0px" y="0px"
	 width="88.877px" height="90.667px" viewBox="0 0 88.877 90.667" enable-background="new 0 0 88.877 90.667" xml:space="preserve">
<path fill="#FFFFFF" d="M52.354,82.613c-21.43,0-38.802-17.374-38.802-38.803c0-21.428,17.372-38.799,38.802-38.799
	c10.285,0,19.629,4.009,26.572,10.542C70.685,6.033,58.522,0,44.942,0C20.119,0,0,20.122,0,44.942s20.119,44.942,44.942,44.942
	c18.471,0,34.333-11.149,41.24-27.082C79.532,74.625,66.88,82.613,52.354,82.613"/>
<path fill="#FFFFFF" d="M78.724,46.303c-0.755,0.109-1.917,0.185-3.762,0.185c-1.757,0-8.589-0.156-9.929-0.924
	c-0.018-0.01-0.46-0.24-2.259-0.24c-1.013,0-1.908,0.074-1.915,0.076l-0.777,0.067l-5.716-9.166l0.818-0.71
	c1.292-1.125,2.556-2.504,2.708-2.951c0.194-0.682,0.375-3.395,0.44-5.099l0.02-0.535l5.379-4.851
	c-3.285-1.247-6.31-2.484-6.31-2.484l-1.238,1.489l-1.736-2.231l-14.111-6.649l3.946,10.369l2.479,3.966l-3.223-2.479
	c0,0-8.678,3.473-9.173,6.199c-0.497,2.726,0.993,5.702,0.993,5.702s-12.153,10.91-12.153,12.644c0,1.737,12.646,7.438,12.646,7.438
	l9.175-3.968H48c0,0,11.405,8.926,9.42,14.134c-1.371,3.599-4.134,9.905-5.713,13.462c11.481-1.439,19.523-6.166,23.917-14.07
	C79.991,57.812,79.344,49.058,78.724,46.303 M40.66,36.609c0,0-0.927-0.13-1.353-0.548C39.071,35.833,39,35.107,39,35.107
	l-0.748-0.282l4.538-0.06L40.66,36.609z"/>
<path fill="#FFFFFF" d="M88.646,37.855c-1.364-15.88-6.608-18.205-13.248-21.15c-2.27-1.006-4.75-2.105-7.188-3.86
	c0.743,1.603,1.65,3.465,2.514,5.159l0.443,0.868l-10.319,9.306c-0.061,1.297-0.218,4.127-0.516,5.167
	c-0.298,1.045-1.647,2.467-2.673,3.433l3.765,6.038c0.373-0.02,0.844-0.035,1.349-0.035c2.249,0,3.086,0.328,3.52,0.577
	c0.568,0.21,4.601,0.589,8.67,0.589c2.652,0,3.532-0.171,3.757-0.229l0.242-0.2l0.498-0.015c0.583,0,1.952,0,2.223,6.321
	c0.208,4.714-0.362,16.724-10.215,24.862c3.15-1.669,6.219-3.864,8.868-6.75C86.945,60.729,89.742,50.611,88.646,37.855
	 M66.828,31.717c0,0-0.824-0.268-1.147-0.718c-0.181-0.249-0.125-0.925-0.125-0.925l-0.632-0.383l4.147,0.694L66.828,31.717z"/>
</svg>
